<svg xmlns="http://www.w3.org/2000/svg" viewBox="0 0 798.47 798.44"><defs><style>.cls-1{fill:#46464b;}</style></defs><g id="Layer_2" data-name="Layer 2"><g id="Layer_2-2" data-name="Layer 2"><path class="cls-1" d="M798.47,517.74V679.92C788,704,765.87,695.22,747,697.49c0,9.07,0,17.83,0,26.6-.07,44.52-29.79,74.34-74.25,74.34q-299.38,0-598.77,0a83,83,0,0,1-13.2-.72c-37-6-60.72-34.24-60.73-72.35Q0,483.65,0,242c0-56.91-.09-113.83,0-170.74C.12,46.35,10.18,26.06,31,12.48,39.88,6.69,50.83,4.06,60.85,0H686.19a5.66,5.66,0,0,0,1.34.77C728.15,11.09,747,35.31,747,77.21V251.07c7.28,0,13.75.48,20.12-.1,14.49-1.31,25.15,3.77,31.34,17.26V430.41c-6.2,13.49-16.88,18.54-31.37,17.25-6.57-.58-13.23-.1-19.68-.1v53c6.83,0,13.3.48,19.68-.09C781.59,499.18,792.28,504.23,798.47,517.74ZM700.22,251.08v-8.72q0-83.43,0-166.85c0-20.28-8.52-28.72-29-28.73H76.37C55,46.78,46.81,55,46.81,76.45V722c0,21.44,8.19,29.64,29.61,29.64H670.53c2.34,0,4.69.08,7-.06,11-.62,20.73-7.85,21.88-18.67,1.24-11.7.28-23.63.28-35.86-4.44,0-8.31.06-12.18,0-14.71-.24-24.65-9.81-24.68-24.35q-.18-74.07,0-148.14c0-14.1,10-23.68,24.26-24,4.28-.08,8.57,0,12.66,0V447.53c-5,0-9.68.2-14.29,0-12.48-.63-22.49-10-22.55-22.45q-.39-75.63,0-151.26c.06-12.76,10.22-22.2,23.13-22.68C690.42,250.94,694.81,251.08,700.22,251.08Zm50.93,149.34V298.47H710V400.42Zm0,249.52V548H710v102Z"/><path class="cls-1" d="M385.91,188.54c11.08.45,23.59-2,31.18,9a29.51,29.51,0,0,1,5.21,15.74c0,15.16-9.87,21-36.49,22.51v52.71c4.42,0,9-.14,13.57,0,13.24.49,23.29,10.7,23.23,23.45s-10.11,22.79-23.44,23.26c-4.36.15-8.73,0-13.66,0-.22,14.22-4.3,26.49-14.19,36.29-9.71,9.62-21.72,13.72-36,13.85,0,4.65.1,9,0,13.33-.39,13.78-10.57,24-23.64,23.84-12.74-.15-22.68-10.26-23.08-23.6-.13-4.35,0-8.69,0-13.41H235.49c0,4.52.14,9.08,0,13.63-.48,13.29-10.57,23.36-23.3,23.38s-22.92-10-23.4-23.28c-.16-4.38,0-8.76,0-13.77-14-.32-26.37-4.24-36.18-14.13-9.64-9.72-13.87-21.66-13.91-36.13-4.81,0-9.41.15-14,0-13.2-.5-23.27-10.74-23.22-23.45s10.16-22.82,23.42-23.26c4.36-.15,8.73,0,13.53,0v-53c-4.05,0-8.33.08-12.6,0-13.91-.29-24.21-10.1-24.35-23.14-.15-13.34,10.3-23.38,24.64-23.61,3.87-.07,7.74,0,12.38,0,.35-13.85,4.13-26.22,14-36,9.71-9.68,21.61-14,36.3-14,0-4.68-.12-9.25,0-13.81.43-13.31,10.46-23.39,23.22-23.46s23,10,23.48,23.19c.17,4.38,0,8.77,0,13.68h53.05c0-4.66-.15-9.26,0-13.85.54-13.16,10.91-23.19,23.64-23,12.44.16,22.45,10,23,22.84.21,4.61,0,9.24,0,13.8C367.42,140.23,384.1,159.06,385.91,188.54ZM186,337.85H337.81V186H186Z"/><path class="cls-1" d="M475.66,262.17c0-45.44-.1-90.88.06-136.31.06-18.41,17.59-29.84,33.43-22,9.33,4.61,13.33,12.54,13.31,22.8q-.08,44.79,0,89.58,0,90.36,0,180.72c0,18.8-16.4,30.81-32.43,23.71-10.08-4.47-14.39-12.76-14.37-23.72Q475.77,329.55,475.66,262.17Z"/><path class="cls-1" d="M622.25,262.78c0,44.92.08,89.84,0,134.76-.05,18.58-17,30.33-33,22.85-9.69-4.56-13.84-12.66-13.82-23.28q.1-73.22,0-146.44c0-41.55-.1-83.09,0-124.63.07-18.46,17.42-30,33.28-22.28,9.68,4.7,13.52,12.92,13.5,23.48Q622.16,195,622.25,262.78Z"/><path class="cls-1" d="M261.22,597.27c-44.92,0-89.83.08-134.75,0-19-.05-30.63-17.59-22.51-33.64,4.69-9.28,12.65-13.15,22.91-13.13q72.45.09,144.89,0c42.06,0,84.12-.1,126.19,0,18.48.07,30,17.38,22.29,33.28-4.7,9.68-12.92,13.52-23.48,13.5Q329,597.18,261.22,597.27Z"/><path class="cls-1" d="M261.9,650.29q67.77,0,135.54,0c18.61,0,30.42,16.87,23,32.83-4.49,9.72-12.59,14-23.2,13.94q-52.59-.09-105.16,0-82.58,0-165.14,0c-18.76,0-30.77-16.52-23.6-32.51,4.51-10,12.82-14.31,23.78-14.29Q194.52,650.4,261.9,650.29Z"/><path class="cls-1" d="M523.91,550.49c8.29,0,16.59-.16,24.88,0,13.29.34,23.37,10.33,23.52,23.05.17,13.06-10,23.43-23.72,23.63q-24.5.35-49,0c-13.74-.17-24-10.41-23.91-23.44s10.34-23,24.11-23.25C507.83,550.37,515.87,550.49,523.91,550.49Z"/><path class="cls-1" d="M524.23,650.3c8,0,16.08-.13,24.11,0,13.77.27,24,10.35,24,23.39s-10.24,23.14-24,23.3c-16.33.2-32.66.23-49,0-13.6-.21-23.82-10.76-23.58-23.76.23-12.68,10.36-22.61,23.66-22.91C507.64,650.14,515.94,650.3,524.23,650.3Z"/><path class="cls-1" d="M148.16,474.06A23.36,23.36,0,1,1,125,450.7,23.61,23.61,0,0,1,148.16,474.06Z"/><path class="cls-1" d="M212.41,497.44A23.38,23.38,0,1,1,235.49,474,23.71,23.71,0,0,1,212.41,497.44Z"/></g></g></svg>