<svg xmlns="http://www.w3.org/2000/svg" viewBox="0 0 735.14 450.79"><defs><style>.cls-1{fill:#46464b;}</style></defs><g id="Layer_2" data-name="Layer 2"><g id="Layer_1-2" data-name="Layer 1"><path class="cls-1" d="M592.86,190.29c-30.57,0-61.15-.37-91.71.19-11.66.21-20.3-4-27.81-12.34q-25.29-28.08-50.9-55.87c-12.65-13.67-25.66-27-38.45-40.56-10.78-11.42-21.45-22.93-32.2-34.36-5-5.33-6.48-5.3-11.51-.24C328,59.42,315.66,71.59,303.56,84q-45.43,46.78-90.69,93.74c-3,3.13-6,6.42-9.51,9-7.19,5.23-14.72,4.55-20.15-1.26-4.92-5.25-5.54-15.5-.59-21.21,7.41-8.56,15.22-16.78,23-25Q242.1,101,278.73,62.87C296.47,44.48,314.67,26.55,332.26,8c7.55-8,19.08-7.45,25.72-.34s12.57,14.67,19.27,21.6a211.92,211.92,0,0,0,17.7,16c1.77,1.46,4.68,2.09,7.08,2.12,32,.49,64.06.75,96.1,1.19,5.05.07,7.31-1.63,7.19-7-.25-11.72.1-23.44-.12-35.16-.08-4.59,1.19-6.59,6.17-6.46C522,.3,532.6.17,543.22,0c3.87-.06,5.13,1.63,5.11,5.28q-.15,18.12,0,36.25c.06,6.61.73,7.07,7.37,7q19.44-.11,38.88-.09c11.71,0,20.83,3.8,28.74,13.62,20.85,25.86,42.93,50.72,64.52,76,6.16,7.21,12.54,14.25,18.42,21.69,4.81,6.09,8.51,12.5,5.24,21.08-2.12,5.54-5.6,8.59-11,9.14-6.35.64-12.77.72-19.16.74q-44.22.09-88.44,0Z"/><path class="cls-1" d="M80.38,396.83c-27.92-.38-52.13-9.2-69.9-31.86-3.57-4.55-6-10-9.33-14.76-2.25-3.26-1-5,1.88-6.49,9.28-4.94,18.64-9.75,27.81-14.91,3.63-2.05,5.38.12,7.44,2.2,5.62,5.68,10.52,12.45,17,16.81C65,354.29,75.89,358.11,87.93,354c3.9-1.35,8-2.18,11.75-3.83,8.26-3.64,10.89-10.58,10.62-19.15-.25-8.23-4.44-13.64-11.65-17Q81.85,306.3,65,298.78c-10.39-4.61-21.33-8.21-31.19-13.76-19.2-10.82-28.57-28.61-27.9-50,.77-24.81,14-41.64,37.52-51.18,18.87-7.64,38-8.91,57.3-5.18,8.45,1.63,16.47,6.47,24.16,10.78,10,5.62,17.44,14.32,24.13,23.57,3,4.09,2.28,6.31-2.18,8.93-7.69,4.52-15.25,9.26-22.83,14-3,1.87-5.35,1.72-8.39-.58a271.17,271.17,0,0,0-22.48-15.45c-9.25-5.62-29-1.27-35.16,7-5.13,6.89-5.22,22,5.67,27.15S86,263.08,97.38,267.29c19.31,7.15,38.19,15.31,50.91,32.31,15.43,20.64,15.12,44.46.39,66.14-8.77,12.92-21.1,20.43-35.74,25.32C102.29,394.62,91.77,397.58,80.38,396.83Z"/><path class="cls-1" d="M393.43,313.22V244c0-8.72,0-8.73,8.84-8.73,11,0,22,.15,33-.07,4.11-.08,5.6,1.42,5.41,5.43a118.09,118.09,0,0,0,.1,13.17c.09,1.34,1.19,3.52,2.14,3.7a5,5,0,0,0,4.17-1.79c6.54-9.65,16-15.8,26.45-19.47,10.16-3.58,20.76-5.4,32.14-2.22,13,3.63,24.73,8.5,33.68,18.78,7.24,8.31,12,18,12.44,29,1.23,33.26,2.07,66.54,2.9,99.81.23,9-1.49,10.5-10.4,10.73-10.78.28-21.56.47-32.34.87-4.38.15-6.16-1.34-6.12-6,.19-23.79.17-47.58.07-71.38,0-7.86-.3-15.73-.84-23.58a21.4,21.4,0,0,0-21.16-20.15c-14.58-.11-26.38,5.34-34.94,16.72a39.84,39.84,0,0,0-8.28,23.82c-.11,23.61,0,47.22-.06,70.83,0,8.92-.12,9-8.79,9-9.52,0-19,.08-28.55.06-8.11,0-9.72-1.61-9.72-9.58q0-34.86,0-69.73Z"/><path class="cls-1" d="M183,235.59c5.11-.34,9-.83,13-.82,9.7,0,19.41.06,29.08.58a8,8,0,0,1,5.76,3.63c5.28,10.76,10.16,21.71,15,32.65,8.71,19.54,17.29,39.14,26,58.67.57,1.26,2.12,2.81,3.3,2.89a4.88,4.88,0,0,0,3.69-2.39c6.59-13.54,13.19-27.09,19.37-40.82C306,272.76,313.33,255.36,321,238.1a5.14,5.14,0,0,1,3.67-2.7c14.19-.2,28.39-.13,44.18-.13-3.25,7.64-5.87,14.1-8.72,20.46-5,11.08-10.09,22.12-15.19,33.16-9.29,20.1-18.67,40.15-27.88,60.29-6.81,14.88-13.17,29.95-20.14,44.75-8.28,17.6-17,35-25.48,52.49-1.58,3.27-3.94,4.37-7.44,4.34-11.53-.09-23.06.08-34.59,0-4.75,0-5.33-1.39-3.28-5.64,8-16.55,16.22-33,23.38-49.87a21.77,21.77,0,0,0-.2-15.43c-9.51-22.16-19.94-43.91-30-65.84-8.91-19.46-17.71-39-26.64-58.41C189.76,249.23,186.61,243,183,235.59Z"/><path class="cls-1" d="M735.14,268.88c-7.32,3.43-14.13,6.65-21,9.79-2.82,1.29-6.1,1.87-8.5,3.66-4.51,3.36-8.18,1.72-11.78-1.05-9.31-7.17-19.86-10.46-31.36-8.45-14.39,2.52-26.7,8.37-31.73,23.87-4.58,14.14-5.06,27.86,3.18,40.88,8.5,13.43,21.57,17.16,36.46,16.48,8.32-.38,16.41-2.13,23.09-7.36,6.24-4.88,11.61-1.69,17.25.85,6.63,3,13.26,5.94,20,8.76,3.37,1.43,3.86,4.49,1.23,8.45-6.82,10.27-16.75,16.53-27.57,21.76C686,395.4,666.18,397,647.13,392.79c-27-5.9-47.34-22.06-59.67-47.74-6.91-14.39-8-29.54-5.36-44.3,3.78-21.25,15.08-38.83,33.06-51.58,19.08-13.54,40.36-19.74,63.47-16.54,19.32,2.68,36.6,10.77,49.79,25.85C730.88,261.29,732.54,264.8,735.14,268.88Z"/><path class="cls-1" d="M318.57,159C335,159,335,159,335,175.22a64.05,64.05,0,0,0,.12,8.77c.79,5.59-2.24,7.19-6.94,7.14-7.31-.08-14.62-.36-21.93-.44-3.52,0-4.84-1.68-4.78-5.11.13-7.31.18-14.63,0-22-.09-3.72,1.67-4.78,5-4.68C310.51,159.07,314.54,159,318.57,159Z"/><path class="cls-1" d="M318,142.4c-16.5,0-16.5,0-16.5-16.33,0-15.12,0-15.12,15.42-15.1,4.39,0,8.79.07,13.18,0,3.32-.06,5.16,1.14,5.1,4.77q-.18,11-.05,22c0,3.24-1.28,4.76-4.52,4.72C326.42,142.36,322.21,142.4,318,142.4Z"/><path class="cls-1" d="M355.15,174.53c0-3.66.08-7.32,0-11-.1-3.2,1.13-4.68,4.49-4.63q11.26.18,22.52,0c3.26-.05,4.68,1.23,4.64,4.51q-.12,11.26,0,22.52c0,3.83-1.93,5.18-5.49,5.1-6.77-.15-13.54-.35-20.31-.27-4.14.05-6.14-1.47-5.91-5.79.19-3.47,0-7,0-10.44Z"/><path class="cls-1" d="M386.51,127.18c.36,17.45,2.27,15.14-14.68,15.23-4,0-8-.25-12.06-.21-3.21,0-4.68-1.3-4.65-4.56q.12-11,0-21.93c0-3.11,1.09-4.77,4.45-4.73,7.49.07,15,.07,22.47,0,3.37,0,4.52,1.63,4.46,4.73C386.46,119.5,386.51,123.34,386.51,127.18Z"/></g></g></svg>