<svg xmlns="http://www.w3.org/2000/svg" viewBox="0 0 778.03 893.1"><defs><style>.cls-1{fill:#46464b;}</style></defs><g id="Layer_2" data-name="Layer 2"><g id="Layer_1-2" data-name="Layer 1"><path class="cls-1" d="M542.5,0a25.07,25.07,0,0,0,3.55,1.7c20.17,6,32.24,24.85,29.63,46.37-2.36,19.46-19.76,35-40.16,35.57-10.17.29-20.35.08-30.53.08H144.81c-38.24,0-61,22.94-61,61.4q0,301.26,0,602.52c0,38.86,22.81,61.67,61.67,61.68q193.6,0,387.22,0c30.65,0,51.08,28.07,41.11,56A41.74,41.74,0,0,1,534.27,893c-28.78.19-57.56,0-86.34,0q-153.06,0-306.11,0C72.46,893,16.59,847.47,2.74,779.65A143.81,143.81,0,0,1,.12,751.09Q-.09,446.77,0,142.46C.05,73.05,44.09,18.26,111.86,2.84c2.33-.53,4.47-1.88,6.71-2.84Z"/><path class="cls-1" d="M635.05,404.66c-43-43-84.29-84.33-125.74-125.51-12.95-12.87-17.76-27.82-12.13-45.24,9.11-28.16,44.41-37.66,66.8-18.29,2.42,2.09,4.65,4.4,6.91,6.66L761.44,412.8c22.13,22.14,22.13,45.33,0,67.49Q665.21,576.48,569,672.65c-16.17,16.15-36.36,19.28-53.78,8.61-23.74-14.54-27-46-6.52-66.57q59-59.4,118.42-118.37c2.16-2.15,5.12-3.48,7.7-5.2l-1.88-2.73h-9.23q-158.3,0-316.59,0c-23.65,0-42-16.51-43.6-38.73-1.74-24.52,17.31-44.85,42.61-44.92,54.07-.15,108.15,0,162.22,0H635.05Z"/></g></g></svg>