<svg xmlns="http://www.w3.org/2000/svg" viewBox="0 0 798.61 661.87"><defs><style>.cls-1{fill:#46464b;}</style></defs><g id="Layer_2" data-name="Layer 2"><g id="Layer_2-2" data-name="Layer 2"><path class="cls-1" d="M798.61,599.08c-3,14.08-7.49,27.38-17.35,38.42-12.33,13.79-27.54,21.79-45.89,23.73a126.89,126.89,0,0,1-13.23.52q-322.78,0-645.56.12c-25.23,0-46.31-7.81-62-28.08C4.62,621,.29,606.2.23,590.22c-.15-41.58-.48-83.17.09-124.74.83-61.78,48-111.92,109.8-115.1a821.31,821.31,0,0,1,97.35,1c13.54.91,20.57-.84,28.75-12.71,21.79-31.65,53.44-48,92.07-48.45,48.85-.56,97.74-1.09,146.56.39,40.45,1.22,71.54,21.12,92.93,55.41,3.76,6,7,8.52,14,6.3a46,46,0,0,1,13.83-1.9c33.76.05,67.7-1.82,101.22,1.05,50.79,4.34,92.49,46.33,100.21,96.61a56.61,56.61,0,0,0,1.56,5.95ZM260.3,614.5H538.09c.16-1.69.37-2.93.37-4.18,0-67.78.49-135.57-.19-203.35-.42-41.41-30.51-69.9-72.58-70.16-44.15-.28-88.31-.52-132.45.25-11.1.2-23.09,2.33-33,7.05-27.53,13.07-40,36.33-39.94,66.61q.11,97.78,0,195.57Zm-46.79,0V414.76c0-17.7,0-18-18.3-18.17q-38.16-.4-76.34,0A73,73,0,0,0,100.42,399C67,408.16,47.15,434.32,47,469.47c-.17,39.21-.06,78.42,0,117.63C47,606.42,55.56,615,75.09,615q65,0,130.1,0C207.7,615,210.22,614.72,213.51,614.55Zm371.77-.48a18.66,18.66,0,0,0,3.2.81c47,0,94,.18,141-.13,13.21-.08,22.24-10.19,22.29-24.08q.22-61.54,0-123.09c-.2-37.85-28.35-68-63.68-70.09-21.73-1.29-43.58-.88-65.37-.92-10.11,0-20.21.77-30.31,1.08-5.38.17-7.36,2.17-7.34,8.08.27,66.22.18,132.44.2,198.66Z"/><path class="cls-1" d="M399.6,0c76.58.18,138.69,62.43,138.58,138.89-.11,76.3-62.91,139-139,138.72-76.38-.26-138.75-62.88-138.58-139.14C260.78,62,323.16-.18,399.6,0Zm-.12,46.78a92,92,0,0,0-92.09,92c0,50.36,41.09,91.65,91.53,92S491.28,189.61,491.4,139A91.94,91.94,0,0,0,399.48,46.78Z"/><path class="cls-1" d="M156.35,129A104.29,104.29,0,0,1,260.24,232.6c.27,57-47.08,104.35-104.15,104.22-57.22-.13-104.52-47.74-103.82-104.5C53,174.89,99.34,128.87,156.35,129Zm.88,46.91c-31-.93-56.74,23.84-58,55.9-1.23,30.47,24.22,56.88,56,58.13,30.39,1.2,56.73-24.21,58.13-56.09C214.68,203.5,188.9,176.88,157.23,175.93Z"/><path class="cls-1" d="M746.53,232.88c-.11,57.3-47.36,104.35-104.38,103.94s-103.6-47.17-103.6-104c0-57.18,47.38-104.26,104.44-103.79C700.28,129.49,746.63,176,746.53,232.88Zm-105-56.94c-31.68,1-57.46,27.67-56,58,1.49,31.92,27.83,57.29,58.19,56,31.83-1.33,57.25-27.76,56-58.19C698.22,199.68,672.5,175,641.5,175.94Z"/></g></g></svg>