<svg xmlns="http://www.w3.org/2000/svg" viewBox="0 0 800 501.27"><defs><style>.cls-1{fill:#46464b;}</style></defs><g id="Layer_2" data-name="Layer 2"><g id="Layer_2-2" data-name="Layer 2"><path class="cls-1" d="M496,209.05q131.18,0,262.36,0c28.73,0,46.64,22.06,40.48,49.14a38.07,38.07,0,0,1-33.47,29.32c-3.24.3-6.51.25-9.76.25q-261.13,0-522.29,0c-23.09,0-37.85-10-42.66-28.7-6.9-26.8,11-49.92,39.31-50Q362.94,208.87,496,209.05Z"/><path class="cls-1" d="M494.62,422.32q131.8,0,263.59.07c28.38.06,46,21.2,40.79,48a37.62,37.62,0,0,1-33.58,30.54c-3.64.35-7.32.35-11,.35q-259.94,0-519.85,0c-25.39,0-40.11-10.39-44.44-31-5.23-25,11.66-47.17,37.22-47.7,28.87-.6,57.76-.21,86.64-.21Z"/><path class="cls-1" d="M494.8,79.23q-131.8,0-263.59-.07c-29.78,0-48.22-23.82-40.37-51.27A38,38,0,0,1,223.45.68c3.64-.36,7.32-.38,11-.38C408.11.28,581.81.59,755.49,0c30.85-.1,46.23,21.58,44.31,43.13-2,21.94-17.79,36-41.42,36-56.94.18-113.89.07-170.84.07Z"/><path class="cls-1" d="M39.39,209.07C61.53,209,78.93,226,79.22,247.92c.29,22.33-17.52,40-40.1,39.85A38.9,38.9,0,0,1,0,248.26C.1,226.09,17.15,209.12,39.39,209.07Z"/><path class="cls-1" d="M39,79.16A39,39,0,0,1,0,39.42C.18,17.25,17.27.36,39.53.35,62.09.35,79.77,18.28,79.22,40.6,78.68,62.51,61.07,79.39,39,79.16Z"/><path class="cls-1" d="M39.62,422.42a39.22,39.22,0,0,1,39.6,39.17c.15,22.33-17.72,39.88-40.33,39.6C16.75,500.92-.21,483.59,0,461.46S17.45,422.39,39.62,422.42Z"/></g></g></svg>