<svg xmlns="http://www.w3.org/2000/svg" viewBox="0 0 798.72 798.64"><defs><style>.cls-1{fill:#46464b;}</style></defs><g id="Layer_2" data-name="Layer 2"><g id="Layer_2-2" data-name="Layer 2"><path class="cls-1" d="M0,81.27C4.06,65.71,8.71,50.43,18.92,37.49,37.58,13.87,61.83.59,92,.35c63.38-.5,126.78-.41,190.17-.07,50.27.27,91.89,41.73,92.1,92q.54,126.24,0,252.48c-.22,50.23-41.82,91.7-92.1,92-62.61.37-125.22.21-187.84.07-46.12-.11-83.84-31.51-92.8-76.81A30.77,30.77,0,0,0,0,355.74ZM312,218.5q0-60.39,0-120.79c0-22.74-12.42-35.14-35.15-35.14q-89.64,0-179.28,0C74.8,62.57,62.4,75,62.4,97.71q0,120.8,0,241.58c0,22.72,12.43,35.15,35.13,35.16q89.64,0,179.28,0C299.5,374.44,312,362,312,339.29Q312,278.9,312,218.5Z"/><path class="cls-1" d="M505.39,798.64c-15.25-4.13-30.32-8.55-43.14-18.49-24.33-18.84-37.7-43.5-37.84-74.24q-.56-125.46-.07-250.93a93.34,93.34,0,0,1,92.79-92.93q94.32-.41,188.63,0A93.31,93.31,0,0,1,798.56,455q.39,124.31.05,248.6c-.05,47.1-31.16,84.46-77.62,93.65a19.05,19.05,0,0,0-3.47,1.42ZM736.24,580.26q0-60.39,0-120.79c0-22.7-12.44-35.1-35.18-35.1q-89.64,0-179.28,0c-22.7,0-35.09,12.42-35.1,35.18q0,120.8,0,241.58c0,22.7,12.44,35.12,35.18,35.12q89.64,0,179.28,0c22.65,0,35.09-12.48,35.1-35.2Q736.28,640.66,736.24,580.26Z"/><path class="cls-1" d="M0,567.83C4.06,552.27,8.71,537,18.93,524.05c18.66-23.63,42.91-36.9,73.05-37.14q95.1-.75,190.2-.07c50.26.28,91.67,41.77,92.09,92,.35,41.82.19,83.65.06,125.47-.14,45.77-31.27,83.54-76.07,92.68a45.65,45.65,0,0,0-5,1.62H81.11a47.49,47.49,0,0,0-5-1.61c-27.51-5.93-49.28-20.45-63-45C7.15,741.4,4.27,729.08,0,717.55ZM187.22,736.26c30.39,0,60.79,0,91.18,0,20.57,0,33.51-13,33.55-33.61q.09-60,0-120c0-20.59-13-33.49-33.63-33.5q-91.18-.07-182.36,0c-20.6,0-33.51,13-33.54,33.59q-.09,60,0,120c0,20.57,13,33.48,33.63,33.52C126.43,736.31,156.82,736.26,187.22,736.26Z"/><path class="cls-1" d="M612.26.18c30.4,0,60.81-.07,91.21,0,54,.14,95,41.21,95.15,95.35q.12,60.8,0,121.58c-.14,53.56-41.27,94.8-94.81,94.92q-92.37.19-184.75,0c-53.5-.12-94.64-41.42-94.76-95q-.14-61.19,0-122.36c.15-53,41.39-94.31,94.42-94.52C549.9.08,581.08.18,612.26.18Zm-.84,249.52q45.21,0,90.41,0c21.64,0,34.37-12.72,34.4-34.33q.06-59.22,0-118.43c0-21.67-12.71-34.35-34.36-34.36q-90.39,0-180.8,0c-21.68,0-34.37,12.67-34.39,34.31q-.06,59.22,0,118.43c0,21.65,12.71,34.35,34.34,34.38Q566.23,249.75,611.42,249.7Z"/></g></g></svg>