<svg xmlns="http://www.w3.org/2000/svg" viewBox="0 0 647.95 698.37"><defs><style>.cls-1{fill:#46464b;}</style></defs><g id="Layer_2" data-name="Layer 2"><g id="Layer_2-2" data-name="Layer 2"><path class="cls-1" d="M471.91,573.83c-8,39.08-27.11,70.37-58.14,93.95C327,733.7,203.21,687.85,178.1,580.44c-1.35-5.75-3.55-6.77-8.75-6.71-23.13.24-46.28.56-69.4,0-41.9-1-72.76-20.66-89.92-58.64-17.34-38.4-12.16-75,15.26-107.65A99,99,0,0,1,34,398.49C61,373.44,74.09,342.31,74.63,305.65c.4-27-1.12-54.23,1.69-81,9-86.3,52.62-151.66,128.15-193.11C350-48.28,526.36,30.08,566.4,191.25c4.71,19,6,39,7.18,58.58,1.45,24.61-.3,49.45,1.92,73.95,2.68,29.51,16.6,54.37,38.64,74.32,60.06,54.41,34.61,146.88-33.2,170a111,111,0,0,1-32,5.48C523.49,574.36,498,573.83,471.91,573.83ZM323.8,523.91q112.27,0,224.55,0c21.32,0,38.16-12.09,46-32.3s2.48-39.18-12.26-54.94c-13.21-14.11-25.89-29.24-36-45.67-18.45-30.08-23.14-63.88-22.46-98.85.45-23.34,1.16-47-2-70C503,87.36,359,10.41,237.19,70.58c-64.86,32.05-103,85.19-111.06,157.7-2.7,24.41-1.56,49.29-1.5,74,.11,54-20,98.87-59.08,135.86A50.31,50.31,0,0,0,53,457.34c-11.32,32.44,13.33,66.49,47.79,66.54Q212.3,524.08,323.8,523.91Zm-95.21,50.22c5.07,30.31,42.08,76.29,99.23,74.53,42.25-1.29,88.75-38.89,91.71-74.53Z"/></g></g></svg>