<svg xmlns="http://www.w3.org/2000/svg" viewBox="0 0 798.64 798.51"><defs><style>.cls-1{fill:#46464b;}</style></defs><g id="Layer_2" data-name="Layer 2"><g id="Layer_2-2" data-name="Layer 2"><path class="cls-1" d="M0,485.05V472.57c6.36-14.37,17.34-19.64,33-19,21.53.9,43.12.22,64.69.22h8.1v-109c-24.58,0-48.71-.64-72.79.22-15.59.56-26.61-4.61-33-19V313.5c5.78-14.34,16.35-20,31.76-19.41,18.92.75,37.88.18,56.83.18h17V242c-24.7,0-48.82-.64-72.89.22-15.61.56-26.61-4.56-32.74-19.13V210.57c6-14.12,16.49-20.14,32-19.09,12.94.88,26,.18,39,.18h35.61c9.75-47.4,38-75.47,85-85V97.85c0-23.65-.08-47.3,0-70.94C191.74,11.22,202.39,0,216.86.06s25,11.18,25.09,27c.12,23.38,0,46.77,0,70.16v8.45h52.32V96.51c0-23.12-.11-46.25.05-69.38.11-15.87,10.57-27,25-27.08,14.75-.08,25.34,11.3,25.39,27.53.08,23.39,0,46.78,0,70.16v8h109.1c0-25.66,0-50.81,0-76a48.23,48.23,0,0,1,.63-10.07A25.34,25.34,0,0,1,481,.1a24.65,24.65,0,0,1,23.14,24c.42,24.42.19,48.85.22,73.28,0,2.77,0,5.54,0,8.44h52.34V97.07c0-22.87,0-45.73.05-68.6a38.26,38.26,0,0,1,1.17-10.76A25.18,25.18,0,0,1,585,.2a24.89,24.89,0,0,1,21.89,24.48c.27,24.68.1,49.37.12,74.06v7.92c47.56,9.83,75.34,38,85,85h8.45c23.65,0,47.3,0,70.95,0,15.83,0,27,10.38,27.18,24.85.16,14.8-11.13,25.35-27.41,25.4-23.4.08-46.79,0-70.18,0h-8.09v52.31h8.94c22.87,0,45.74-.09,68.61,0,17,.09,28.34,10.48,28.13,25.52-.19,14.74-11.5,24.86-28,24.91-23.13.06-46.26,0-69.4,0h-8.35V453.8h8c23.13,0,46.26,0,69.39,0a38.7,38.7,0,0,1,9.27.8,25.19,25.19,0,0,1,19,26.84c-1.2,12.36-11,22.29-23.8,22.54-24.17.47-48.34.22-72.51.26-3,0-6.09,0-9.14,0V556.6c26.62,0,52.59-.07,78.55,0,15.74,0,26.94,10.56,27,25s-11.13,25.13-26.83,25.19c-23.91.09-47.83,0-71.74,0h-8c-9.82,47.38-37.82,75.33-85,85v8.37c0,21.83-.61,43.68.21,65.48.59,15.57-4.43,26.71-19.15,32.76H575.58c-14.58-6.12-19.77-17.12-19.15-32.73.86-21.5.22-43.07.22-64.61v-8.52H504.32v8.71c0,21.8-.58,43.62.2,65.4.55,15.44-5.09,26-19.41,31.75H472.63c-14.4-6.34-19.63-17.34-19-33,.89-21.53.22-43.13.22-64.7v-8.1H344.77c0,24.59-.61,48.72.22,72.8.53,15.56-4.47,26.68-19,33H313.53c-14.34-5.78-20-16.35-19.39-31.76.76-19.43.18-38.92.18-58.38V692.89H242c0,24.71-.6,48.83.21,72.9.53,15.56-4.46,26.66-19.14,32.72H210.58c-14.59-6.11-19.76-17.12-19.16-32.71.85-22,.22-44.12.21-66.18v-7.71c-47.54-10-75.42-38.07-85-85H98.14c-22.06,0-44.15-.65-66.18.22C16.49,607.72,6,602.1,0,588V575.5c6-14.08,16.47-19.79,32-19.13,21,.89,42,.22,63.05.22h10.85V504.28h-8.7c-21.8,0-43.62-.56-65.39.19C16.35,505,5.79,499.37,0,485.05Zm641.59-85.29q0-95.91,0-191.81c0-31.42-19.15-50.86-50.3-50.88q-191.85-.15-383.7,0c-31.25,0-50.48,19.36-50.5,50.67q-.1,191.42,0,382.84c0,31.69,19.27,50.9,51.08,50.91q191.07.1,382.13,0A65.88,65.88,0,0,0,605.73,640c22.26-5.42,35.79-23.69,35.83-48.45Q641.71,495.66,641.59,399.76Z"/><path class="cls-1" d="M221.58,398.46q0-56.9,0-113.78c0-38.15,24.76-63.08,62.78-63.12q115-.09,229.94,0c38,0,62.72,24.95,62.74,63.17q0,114.56,0,229.12C577,552,552.29,577,514.27,577q-115,.12-229.95,0c-37.95,0-62.7-25-62.73-63.18Q221.53,456.14,221.58,398.46Zm50.7,0q0,56.92,0,113.85c0,12.43,1.5,13.93,13.94,13.93H512.4c12.42,0,13.93-1.51,13.94-13.94q0-113.07,0-226.13c0-12.42-1.51-13.92-14-13.92H286.22c-12.44,0-13.92,1.49-13.93,13.93Q272.26,342.36,272.28,398.49Z"/></g></g></svg>