<svg xmlns="http://www.w3.org/2000/svg" viewBox="0 0 770.71 798.47"><defs><style>.cls-1{fill:#acacac;}</style></defs><g id="Layer_2" data-name="Layer 2"><g id="Layer_2-2" data-name="Layer 2"><path class="cls-1" d="M343.24,0c16.11,2.54,32.38,4.32,48.3,7.75C518.51,35,618.42,139.21,639.62,267c15.82,95.41-6.79,181.28-66.44,257.4-1.27,1.62-2.46,3.29-4,5.33q33.62,35,67,69.73,60.53,62.93,121,125.87c17.74,18.5,17.91,44.72.63,61.31s-43.26,15.58-61.16-3q-92-95.45-183.74-191c-1.79-1.86-3.43-3.88-5.48-6.23-6.14,3.88-11.73,7.5-17.4,11C303.62,712,56.68,608.21,8.16,394.85A322.62,322.62,0,0,1,195.86,25.91,310.36,310.36,0,0,1,295.13,1.3a42.13,42.13,0,0,0,6-1.3ZM322.52,560.61C454.41,560.14,561,453.08,560.39,321.74,559.75,189.75,453,83.65,321.28,84.16,190,84.68,83.76,191.71,84.17,323S191.64,561.08,322.52,560.61Z"/></g></g></svg>