<svg xmlns="http://www.w3.org/2000/svg" viewBox="0 0 665.6 798.43"><defs><style>.cls-1{fill:#46464b;}</style></defs><g id="Layer_2" data-name="Layer 2"><g id="Layer_1-2" data-name="Layer 1"><path class="cls-1" d="M123.07,798.43c-9.31-2-18.79-3.37-27.91-6C38.51,776,3,732.48.52,673c-2.58-61.71,4.16-122.52,27.62-180.3,15.15-37.3,37.14-69.55,74-89.28A145.81,145.81,0,0,1,174.74,386c8,.16,16.51,4.23,23.85,8.22,11.83,6.44,22.8,14.43,34.29,21.52q100.17,61.88,200.32-.14c9.27-5.74,18.72-11.28,27.43-17.81,16-12,33.54-13.46,52.51-10.67,51.79,7.6,88.37,36,113,81.22,22,40.4,31.93,84.28,36.33,129.49a641.34,641.34,0,0,1,3.06,70c-.84,69.65-48.65,121.48-117.93,129.13a30,30,0,0,0-5.06,1.46Zm209.81-46.79v-.12c66,0,132,.58,198-.18,54.85-.63,88.51-35.6,88.07-90.38a606.7,606.7,0,0,0-3.31-62.22c-4.13-37-11.81-73.26-29.77-106.53-18.62-34.51-45.59-56.85-86.21-59.09a20.37,20.37,0,0,0-10.84,2.66c-10.07,5.91-19.72,12.54-29.61,18.74C385.42,500.8,309,506.66,230.44,468c-18.32-9-35.05-21.23-52.59-31.83-2.58-1.56-5.66-3.48-8.42-3.36-25.23,1.14-47.87,9.06-66,27.32-15.06,15.15-25.57,33.35-33.24,53.11-19.6,50.52-24.33,103.43-23,156.93.7,29.24,13.33,53.15,39.3,68.5,17.3,10.22,36.46,13,56.21,13Q237.77,751.62,332.88,751.64Z"/><path class="cls-1" d="M520.26,192.12c.33,106.07-85,191.59-192,192.51-105.51.9-192.12-85.32-192.67-191.78S221.21,0,327.93,0C434.43,0,519.92,85.43,520.26,192.12ZM327.89,337.86A145.54,145.54,0,1,0,182.38,192.27,145.12,145.12,0,0,0,327.89,337.86Z"/></g></g></svg>